<svg width="256" height="256" viewBox="0 0 256 256" fill="none" xmlns="http://www.w3.org/2000/svg">
<g clip-path="url(#clip0_13486_7370)">
<path d="M128 32.007C94.02 32.007 66.2309 58.4854 64.1325 91.9355H106.869C108.591 81.8196 117.396 74.1089 128 74.1089C139.845 74.1089 149.445 83.7089 149.445 95.5538V99.688C142.738 97.3037 135.522 96 128 96C92.6536 96 64 124.654 64 160C64 195.346 92.6536 224 128 224C163.346 224 192 195.346 192 160V96C192 60.6536 163.346 32 128 32V32.007ZM128 181.452C116.155 181.452 106.555 171.852 106.555 160.007C106.555 148.162 116.155 138.562 128 138.562C139.845 138.562 149.445 148.162 149.445 160.007C149.445 171.852 139.845 181.452 128 181.452Z" fill="#0485F7"/>
</g>
<defs>
<clipPath id="clip0_13486_7370">
<rect width="256" height="256" fill="white"/>
</clipPath>
</defs>
</svg>
